<mxfile host="app.diagrams.net" agent="Mozilla/5.0 (Windows NT 10.0; Win64; x64) AppleWebKit/537.36 (KHTML, like Gecko) Chrome/131.0.0.0 Safari/537.36" version="24.8.3">
  <diagram name="Página-1" id="H4Kf1RNes1olcNt3rs2s">
    <mxGraphModel dx="1434" dy="780" grid="1" gridSize="10" guides="1" tooltips="1" connect="1" arrows="1" fold="1" page="1" pageScale="1" pageWidth="827" pageHeight="1169" math="0" shadow="0">
      <root>
        <mxCell id="0" />
        <mxCell id="1" parent="0" />
        <mxCell id="r4cGCLrEiMLnPpjOmIR3-22" style="edgeStyle=orthogonalEdgeStyle;rounded=0;orthogonalLoop=1;jettySize=auto;html=1;entryX=0;entryY=0.5;entryDx=0;entryDy=0;" edge="1" parent="1" source="r4cGCLrEiMLnPpjOmIR3-1" target="r4cGCLrEiMLnPpjOmIR3-19">
          <mxGeometry relative="1" as="geometry" />
        </mxCell>
        <mxCell id="r4cGCLrEiMLnPpjOmIR3-1" value="Usuário" style="rounded=0;whiteSpace=wrap;html=1;" vertex="1" parent="1">
          <mxGeometry x="90" y="210" width="120" height="60" as="geometry" />
        </mxCell>
        <mxCell id="r4cGCLrEiMLnPpjOmIR3-2" value="Destino" style="rounded=0;whiteSpace=wrap;html=1;" vertex="1" parent="1">
          <mxGeometry x="354" y="460" width="120" height="60" as="geometry" />
        </mxCell>
        <mxCell id="r4cGCLrEiMLnPpjOmIR3-3" value="Reservas" style="rounded=0;whiteSpace=wrap;html=1;" vertex="1" parent="1">
          <mxGeometry x="620" y="210" width="120" height="60" as="geometry" />
        </mxCell>
        <mxCell id="r4cGCLrEiMLnPpjOmIR3-8" value="id" style="rounded=0;whiteSpace=wrap;html=1;align=left;" vertex="1" parent="1">
          <mxGeometry x="354" y="520" width="120" height="30" as="geometry" />
        </mxCell>
        <mxCell id="r4cGCLrEiMLnPpjOmIR3-9" value="nome" style="rounded=0;whiteSpace=wrap;html=1;align=left;" vertex="1" parent="1">
          <mxGeometry x="354" y="550" width="120" height="30" as="geometry" />
        </mxCell>
        <mxCell id="r4cGCLrEiMLnPpjOmIR3-10" value="descricao" style="rounded=0;whiteSpace=wrap;html=1;align=left;" vertex="1" parent="1">
          <mxGeometry x="354" y="580" width="120" height="30" as="geometry" />
        </mxCell>
        <mxCell id="r4cGCLrEiMLnPpjOmIR3-11" value="id" style="rounded=0;whiteSpace=wrap;html=1;align=left;" vertex="1" parent="1">
          <mxGeometry x="90" y="270" width="120" height="30" as="geometry" />
        </mxCell>
        <mxCell id="r4cGCLrEiMLnPpjOmIR3-12" value="nome" style="rounded=0;whiteSpace=wrap;html=1;align=left;" vertex="1" parent="1">
          <mxGeometry x="90" y="300" width="120" height="30" as="geometry" />
        </mxCell>
        <mxCell id="r4cGCLrEiMLnPpjOmIR3-13" value="dataNascimento" style="rounded=0;whiteSpace=wrap;html=1;align=left;" vertex="1" parent="1">
          <mxGeometry x="90" y="330" width="120" height="30" as="geometry" />
        </mxCell>
        <mxCell id="r4cGCLrEiMLnPpjOmIR3-14" value="endereco" style="rounded=0;whiteSpace=wrap;html=1;align=left;" vertex="1" parent="1">
          <mxGeometry x="90" y="360" width="120" height="30" as="geometry" />
        </mxCell>
        <mxCell id="r4cGCLrEiMLnPpjOmIR3-15" value="id" style="rounded=0;whiteSpace=wrap;html=1;align=left;" vertex="1" parent="1">
          <mxGeometry x="620" y="270" width="120" height="30" as="geometry" />
        </mxCell>
        <mxCell id="r4cGCLrEiMLnPpjOmIR3-16" value="id_Usuario" style="rounded=0;whiteSpace=wrap;html=1;align=left;" vertex="1" parent="1">
          <mxGeometry x="620" y="300" width="120" height="30" as="geometry" />
        </mxCell>
        <mxCell id="r4cGCLrEiMLnPpjOmIR3-17" value="id_Destino" style="rounded=0;whiteSpace=wrap;html=1;align=left;" vertex="1" parent="1">
          <mxGeometry x="620" y="330" width="120" height="30" as="geometry" />
        </mxCell>
        <mxCell id="r4cGCLrEiMLnPpjOmIR3-25" style="edgeStyle=orthogonalEdgeStyle;rounded=0;orthogonalLoop=1;jettySize=auto;html=1;entryX=0.5;entryY=0;entryDx=0;entryDy=0;" edge="1" parent="1" source="r4cGCLrEiMLnPpjOmIR3-18" target="r4cGCLrEiMLnPpjOmIR3-24">
          <mxGeometry relative="1" as="geometry" />
        </mxCell>
        <mxCell id="r4cGCLrEiMLnPpjOmIR3-18" value="Status" style="rounded=0;whiteSpace=wrap;html=1;align=left;" vertex="1" parent="1">
          <mxGeometry x="620" y="360" width="120" height="30" as="geometry" />
        </mxCell>
        <mxCell id="r4cGCLrEiMLnPpjOmIR3-23" style="edgeStyle=orthogonalEdgeStyle;rounded=0;orthogonalLoop=1;jettySize=auto;html=1;" edge="1" parent="1" source="r4cGCLrEiMLnPpjOmIR3-19" target="r4cGCLrEiMLnPpjOmIR3-3">
          <mxGeometry relative="1" as="geometry" />
        </mxCell>
        <mxCell id="r4cGCLrEiMLnPpjOmIR3-19" value="realiza" style="rhombus;whiteSpace=wrap;html=1;" vertex="1" parent="1">
          <mxGeometry x="352" y="212.5" width="124" height="55" as="geometry" />
        </mxCell>
        <mxCell id="r4cGCLrEiMLnPpjOmIR3-28" style="edgeStyle=orthogonalEdgeStyle;rounded=0;orthogonalLoop=1;jettySize=auto;html=1;entryX=1;entryY=0.5;entryDx=0;entryDy=0;" edge="1" parent="1" source="r4cGCLrEiMLnPpjOmIR3-24" target="r4cGCLrEiMLnPpjOmIR3-8">
          <mxGeometry relative="1" as="geometry" />
        </mxCell>
        <mxCell id="r4cGCLrEiMLnPpjOmIR3-24" value="vincula" style="rhombus;whiteSpace=wrap;html=1;" vertex="1" parent="1">
          <mxGeometry x="618" y="507.5" width="124" height="55" as="geometry" />
        </mxCell>
        <mxCell id="r4cGCLrEiMLnPpjOmIR3-29" value="(1;1)" style="text;html=1;align=center;verticalAlign=middle;whiteSpace=wrap;rounded=0;" vertex="1" parent="1">
          <mxGeometry x="210" y="200" width="60" height="30" as="geometry" />
        </mxCell>
        <mxCell id="r4cGCLrEiMLnPpjOmIR3-30" value="(0;n)" style="text;html=1;align=center;verticalAlign=middle;whiteSpace=wrap;rounded=0;" vertex="1" parent="1">
          <mxGeometry x="550" y="200" width="60" height="30" as="geometry" />
        </mxCell>
        <mxCell id="r4cGCLrEiMLnPpjOmIR3-31" value="(1;1)" style="text;html=1;align=center;verticalAlign=middle;whiteSpace=wrap;rounded=0;" vertex="1" parent="1">
          <mxGeometry x="480" y="490" width="60" height="30" as="geometry" />
        </mxCell>
      </root>
    </mxGraphModel>
  </diagram>
</mxfile>
